<svg xmlns:xlink="http://www.w3.org/1999/xlink" xmlns="http://www.w3.org/2000/svg" viewBox="0 0 340 117.26986238522919" preserveAspectRatio="xMidYMid meet" class="css-1bokhjq" id="cedacffh" width="835"  height="288" ><defs id="SvgjsDefs1013"></defs><g id="SvgjsG1014" featurekey="symbolContainer" transform="matrix(1,0,0,1,0,11)" fill="url(&quot;#symbol-foil0.4&quot;)"><rect width="120" height="95" rx="8" fill="url(&quot;#symbol-foil0.4&quot;)"></rect></g><g id="SvgjsG1015" featurekey="symbolFeature-0" transform="matrix(0.8888888888888888,0,0,0.8888888888888888,15.555555555555555,14.282666524251303)" fill="#444444"><g xmlns="http://www.w3.org/2000/svg" fill="#444444"><path fill="#ffc7ff" d="M94.999,33.633v-4.966c-0.003-8.554-6.931-15.482-15.485-15.485h-59.03   C11.931,13.184,5.002,20.113,5,28.667v42.666c0.002,8.553,6.931,15.482,15.485,15.485h59.03   c8.553-0.003,15.482-6.931,15.485-15.485V33.64L95,33.637L94.999,33.633z M20.485,21.363h59.03   c4.032,0.007,7.296,3.272,7.304,7.304v0.879H13.181v-0.879C13.189,24.635,16.452,21.371,20.485,21.363z M79.515,78.637h-59.03   c-4.032-0.007-7.296-3.271-7.304-7.303V37.727h73.637v33.606C86.811,75.365,83.546,78.629,79.515,78.637z"></path><path fill="#ffc7ff" d="M38.916,48.799c-1.598-1.597-4.188-1.597-5.785,0l-6.248,6.249l-0.001,0.001   c-0.799,0.799-1.199,1.846-1.198,2.893c-0.001,1.047,0.399,2.094,1.198,2.893l0.001,0.001l6.248,6.249   c1.597,1.598,4.187,1.598,5.785,0c1.597-1.598,1.597-4.188,0-5.785l-3.357-3.357l3.357-3.357   C40.513,52.987,40.513,50.397,38.916,48.799z"></path><path fill="#ffc7ff" d="M73.604,56.403c-0.2-0.492-0.499-0.954-0.899-1.353l-6.25-6.25c-1.597-1.598-4.188-1.598-5.785,0   c-1.597,1.597-1.597,4.188,0,5.785l3.357,3.357l-3.357,3.357c-1.597,1.598-1.597,4.188,0,5.785c1.597,1.598,4.187,1.598,5.785,0   l6.25-6.25c0.799-0.799,1.199-1.846,1.199-2.893C73.904,57.419,73.803,56.896,73.604,56.403z"></path><path fill="#ffc7ff" d="M54.858,43.514c-2.132-0.748-4.467,0.373-5.216,2.505l-7.42,21.136c-0.748,2.132,0.374,4.467,2.505,5.215   c2.132,0.748,4.467-0.373,5.216-2.505l7.42-21.136C58.111,46.597,56.989,44.263,54.858,43.514z"></path></g></g><g id="SvgjsG1016" featurekey="nameFeature-0" transform="matrix(3.0893174343665586,0,0,3.0893174343665586,136.84654815232435,-34.04491592067832)" fill="url(&quot;#symbol-foil0.1&quot;)"><path d="M14.712 34.2684 c0 0.5624 -0.21356 0.9348 -0.70076 1.2124 l-7.3844 4.2724 c-0.24359 0.14078 -0.4728 0.21117 -0.70204 0.21117 s-0.45844 -0.070392 -0.70204 -0.21117 l-3.5008 -2.0236 c-0.4868 -0.2816 -0.7012 -0.6532 -0.7012 -1.2156 l0 -22.007 c0 -0.5624 0.21442 -0.934 0.7012 -1.2156 l3.6772 -2.1256 c0.15359 -0.092384 0.3332 -0.14559 0.5252 -0.14559 c0.5632 0 1.02 0.4568 1.02 1.02 c0 0.38398 -0.21238 0.7184 -0.52596 0.8924 l-3.358 1.9408 l0 21.273 l2.864 1.6556 l6.7476 -3.9004 l0 -3.3128 l-1.844 -1.066 l0 2.7224 c0 0.5632 -0.4568 1.02 -1.02 1.02 s-1.0192 -0.4568 -1.0192 -1.02 l-0.0051952 -4.4892 c0 -0.35078 0.18121 -0.692 0.5052 -0.8816 c0.16602 -0.096016 0.34281 -0.13961 0.5144 -0.13961 c0.18238 0 0.35879 0.04922 0.5104 0.13684 l3.6972 2.1344 c0.4868 0.2816 0.7012 0.6532 0.7012 1.2156 l0 4.0468 z M4.9048 16.752 c0 -0.5624 0.21394 -0.93476 0.70076 -1.2164 l7.3844 -4.2684 c0.24359 -0.14078 0.4728 -0.21117 0.70204 -0.21117 s0.45844 0.070392 0.70204 0.21117 l3.5008 2.0236 c0.4872 0.2816 0.7016 0.6532 0.7016 1.2156 l0 8.5368 c0 0.5624 -0.21442 0.934 -0.7012 1.2156 l-3.6772 2.1256 c-0.15359 0.092384 -0.3332 0.14559 -0.5252 0.14559 c-0.5632 0 -1.02 -0.4568 -1.02 -1.02 c0 -0.38398 0.21238 -0.7184 0.52596 -0.8924 l3.358 -1.9408 l0 -7.8028 l-2.864 -1.6556 l-6.748 3.9004 l0 17.372 c0 0.5632 -0.4568 1.02 -1.02 1.02 s-1.02 -0.4568 -1.02 -1.02 l0 -17.738 z M9.3144 22.372 l3.3576 -1.9416 l0 -2.1336 l-2.3388 1.352 c-0.1532 0.092384 -0.33281 0.14559 -0.5248 0.14559 c-0.5632 0 -1.02 -0.4568 -1.02 -1.02 c0 -0.38398 0.21558 -0.71276 0.52596 -0.89276 l3.8632 -2.236 c0.16078 -0.092812 0.33598 -0.1368 0.50916 -0.1368 c0.35238 0 0.6952 0.18281 0.884 0.51 c0.092812 0.16078 0.1368 0.33598 0.1368 0.50916 l0.0048048 4.2696 c0.00039062 0.5624 -0.2148 0.934 -0.702 1.2156 l-3.6772 2.1256 c-0.1532 0.092384 -0.33281 0.14559 -0.5248 0.14559 c-0.5632 0 -1.02 -0.4568 -1.02 -1.02 c0 -0.38398 0.21238 -0.7184 0.52596 -0.8924 z M17.576 26.734 c0.5632 0 1.02 0.4564 1.02 1.0196 l0 8.7584 c0 0.5624 -0.21442 0.934 -0.7016 1.2156 l-3.6772 2.1256 c-0.15359 0.092384 -0.3332 0.14559 -0.5252 0.14559 c-0.5632 0 -1.02 -0.4568 -1.02 -1.02 c0 -0.38398 0.21238 -0.7184 0.52596 -0.8924 l3.358 -1.9408 l0 -8.3916 c0 -0.5632 0.4568 -1.02 1.02 -1.02 z M21.64 48.980000000000004 c-0.5632 0 -1.02 -0.4568 -1.02 -1.02 c0 -0.38398 0.21238 -0.7184 0.52596 -0.8924 l3.358 -1.9408 l0 -12.66 c0 -0.5624 0.21442 -0.934 0.7012 -1.2156 l3.6772 -2.1256 c0.15359 -0.092384 0.3332 -0.14559 0.5252 -0.14559 c0.5632 0 1.02 0.4568 1.02 1.02 c0 0.38398 -0.21238 0.7184 -0.52596 0.8924 l-3.358 1.9408 l0 12.66 c0 0.5624 -0.21442 0.934 -0.7012 1.2156 l-3.6772 2.1256 c-0.15359 0.092384 -0.3332 0.14559 -0.5252 0.14559 z M21.64 44.49 c-0.5632 0 -1.0196 -0.456 -1.0196 -1.0192 l0 -24.474 c0 -0.5624 0.21442 -0.934 0.7012 -1.2156 l3.6772 -2.1256 c0.15359 -0.092384 0.3332 -0.14559 0.5252 -0.14559 c0.5632 0 1.02 0.4568 1.02 1.02 c0 0.38398 -0.21238 0.7184 -0.52596 0.8924 l-3.358 1.9408 l0 24.106 c0 0.5632 -0.4568 1.02 -1.02 1.02 z M25.5244 28.776 c-0.5632 0 -1.0188 -0.45684 -1.0188 -1.02 l0 -6.5132 c0 -0.5624 0.21442 -0.934 0.7012 -1.2156 l3.6868 -2.1332 c0.15559 -0.089608 0.33238 -0.13723 0.512 -0.13723 c0.5504 0 1.0184 0.452 1.0184 1.0196 l0.004414 4.4896 c0 0.5632 -0.4568 1.02 -1.02 1.02 s-1.02 -0.4568 -1.02 -1.02 l0 -2.7224 l-1.844 1.066 l0 6.1464 c0 0.5632 -0.4568 1.02 -1.02 1.02 z M33.4792 40 l0.0030859 0.00082032 c-0.5508 0 -1.0212 -0.4568 -1.0212 -1.0252 l0.0048048 -13.244 c0 -0.5624 0.21442 -0.934 0.7012 -1.2156 l7.3844 -4.2684 c0.24359 -0.14078 0.4728 -0.21117 0.70204 -0.21117 s0.45844 0.070392 0.70204 0.21117 l3.5008 2.0236 c0.4868 0.2816 0.7012 0.6532 0.7012 1.2156 l0 4.0468 c0 0.5624 -0.21442 0.934 -0.7016 1.2156 l-3.1824 1.8396 l0 6.1464 c0 0.5632 -0.4568 1.02 -1.02 1.02 s-1.02 -0.4568 -1.02 -1.02 l0 -6.5132 c0 -0.5624 0.21442 -0.934 0.7012 -1.2156 l3.1824 -1.8396 l0 -3.3128 l-2.864 -1.6552 l-6.7476 3.9004 l0 11.114 l1.844 -1.066 l0 -8.17 c0 -0.5624 0.21442 -0.934 0.7012 -1.2156 l3.6772 -2.1256 c0.1532 -0.092384 0.33281 -0.14559 0.5248 -0.14559 c0.5632 0 1.02 0.4568 1.02 1.02 c0 0.38398 -0.21238 0.7184 -0.52596 0.8924 l-3.358 1.9408 l0 8.17 c0 0.5624 -0.21442 0.934 -0.7016 1.2152 l-3.696 2.1348 c-0.15559 0.089608 -0.33238 0.13723 -0.512 0.13723 z M53.088800000000006 48.980000000000004 c-0.5632 0 -1.0184 -0.45836 -1.0184 -1.0216 c0 -0.38398 0.21238 -0.7184 0.52596 -0.8924 l3.358 -1.9408 l0 -8.17 c0 -0.5624 0.21442 -0.934 0.7012 -1.2156 l7.0664 -4.0844 l0 -7.8028 l-2.864 -1.6552 l-6.7476 3.9004 l0 2.1336 l6.232 -3.6044 c0.15559 -0.089608 0.33238 -0.13723 0.512 -0.13723 c0.5504 0 1.0184 0.452 1.0184 1.0196 l0.004414 4.268 c0.00078124 0.5624 -0.21442 0.934 -0.7012 1.2156 l-3.6772 2.1256 c-0.15359 0.092384 -0.3332 0.14559 -0.5252 0.14559 c-0.5632 0 -1.02 -0.4568 -1.02 -1.02 c0 -0.38398 0.21238 -0.7184 0.52596 -0.8924 l3.358 -1.9408 l0 -2.1336 l-6.2416 3.6064 c-0.15559 0.089608 -0.33238 0.13723 -0.512 0.13723 c-0.6728 0 -1.0208 -0.5924 -1.0208 -1.0252 l0.0048048 -4.2644 c0.00078124 -0.5624 0.21438 -0.934 0.70116 -1.2156 l7.3844 -4.2684 c0.24359 -0.14078 0.4728 -0.21117 0.70204 -0.21117 s0.45844 0.070392 0.70204 0.21117 l3.5008 2.0236 c0.4872 0.2816 0.7016 0.6532 0.7016 1.2156 l0 8.5368 c0 0.5624 -0.21442 0.934 -0.7012 1.2156 l-7.0664 4.0844 l0 8.17 c0 0.5624 -0.21442 0.934 -0.7012 1.2156 l-3.6772 2.1256 c-0.15359 0.092384 -0.3332 0.14559 -0.5252 0.14559 z M49.2008 46.7344 l0.0024219 0.0016016 c-0.6728 0 -1.0208 -0.5924 -1.0208 -1.0252 l0.0048048 -22.224 c0 -0.5624 0.21442 -0.934 0.7012 -1.2156 l3.6772 -2.1256 c0.15359 -0.092384 0.3332 -0.14559 0.5252 -0.14559 c0.5632 0 1.02 0.4568 1.02 1.02 c0 0.38398 -0.21238 0.7184 -0.52596 0.8924 l-3.358 1.9408 l0 20.094 l1.844 -1.066 l0 -8.3916 c0 -0.5632 0.4568 -1.02 1.02 -1.02 s1.02 0.4568 1.02 1.02 l0 8.7584 c0 0.5624 -0.21442 0.934 -0.7016 1.2152 l-3.6964 2.1348 c-0.15559 0.089608 -0.33238 0.13723 -0.512 0.13723 z" fill="#ffc7ff"></path></g></svg>